<?xml version="1.0" encoding="UTF-8" standalone="no" ?>
<!DOCTYPE svg PUBLIC "-//W3C//DTD SVG 1.1//EN" "http://www.w3.org/Graphics/SVG/1.1/DTD/svg11.dtd">
<svg xmlns="http://www.w3.org/2000/svg" xmlns:xlink="http://www.w3.org/1999/xlink" version="1.1" width="1080" height="1080" viewBox="0 0 1080 1080" xml:space="preserve">
<desc>Created with Fabric.js 5.2.4</desc>
<defs>
</defs>
<g transform="matrix(1 0 0 1 540 540)" id="a29b1220-82a8-4be0-8f60-aa38847d49fb"  >
</g>
<g transform="matrix(1 0 0 1 540 540)" id="c9f917bb-2d32-4cd2-a9a7-cf3d30358590"  >
<rect style="stroke: none; stroke-width: 1; stroke-dasharray: none; stroke-linecap: butt; stroke-dashoffset: 0; stroke-linejoin: miter; stroke-miterlimit: 4; fill: rgb(255,255,255); fill-rule: nonzero; opacity: 1; visibility: hidden;" vector-effect="non-scaling-stroke"  x="-540" y="-540" rx="0" ry="0" width="1080" height="1080" />
</g>
<g transform="matrix(1 0 0 1 540 540)"  >
<rect style="stroke: none; stroke-width: 1; stroke-dasharray: none; stroke-linecap: butt; stroke-dashoffset: 0; stroke-linejoin: miter; stroke-miterlimit: 4; fill: rgb(255,254,95); fill-opacity: 0; fill-rule: nonzero; opacity: 1;" vector-effect="non-scaling-stroke"  x="-1000" y="-1000" rx="0" ry="0" width="2000" height="2000" />
</g>
<g transform="matrix(2.65 0 0 2.65 325.74 242.94)"  >
<path style="stroke: none; stroke-width: 1; stroke-dasharray: none; stroke-linecap: butt; stroke-dashoffset: 0; stroke-linejoin: miter; stroke-miterlimit: 4; fill: rgb(0,0,0); fill-rule: nonzero; opacity: 1;" vector-effect="non-scaling-stroke"  transform=" translate(-919.07, -796.02)" d="M 879.4 707.95 L 906.4499999999999 707.95 C 935.3299999999999 707.95 958.7399999999999 731.36 958.7399999999999 760.24 L 958.7399999999999 884.09 L 879.3999999999999 864.45 L 879.3999999999999 707.95 z" stroke-linecap="round" />
</g>
<g transform="matrix(2.65 0 0 2.65 754.26 242.94)"  >
<path style="stroke: none; stroke-width: 1; stroke-dasharray: none; stroke-linecap: butt; stroke-dashoffset: 0; stroke-linejoin: miter; stroke-miterlimit: 4; fill: rgb(0,0,0); fill-rule: nonzero; opacity: 1;" vector-effect="non-scaling-stroke"  transform=" translate(-1080.93, -796.02)" d="M 1120.6 707.95 L 1120.6 864.45 L 1041.26 884.09 L 1041.26 760.24 C 1041.26 731.36 1064.67 707.95 1093.55 707.95 L 1120.6 707.95 z" stroke-linecap="round" />
</g>
<g transform="matrix(2.65 0 0 2.65 540 773.71)"  >
<path style="stroke: none; stroke-width: 1; stroke-dasharray: none; stroke-linecap: butt; stroke-dashoffset: 0; stroke-linejoin: miter; stroke-miterlimit: 4; fill: rgb(0,0,0); fill-rule: nonzero; opacity: 1;" vector-effect="non-scaling-stroke"  transform=" translate(-1000, -996.5)" d="M 1189.23 884.5 L 1189.23 898.58 C 1189.23 912.0200000000001 1180.06 923.74 1167.01 926.97 L 1120.6 938.46 L 1120.6 1047.98 C 1120.6 1072.04 1104.1899999999998 1092.99 1080.83 1098.75 L 1041.27 1108.5 L 1041.27 958.1 L 1000 968.31 L 958.74 958.0999999999999 L 958.74 1108.5 L 919.1800000000001 1098.75 C 895.82 1092.99 879.4100000000001 1072.04 879.4100000000001 1047.98 L 879.4100000000001 938.46 L 832.9900000000001 926.97 C 819.9400000000002 923.74 810.7700000000001 912.03 810.7700000000001 898.58 L 810.7700000000001 884.5 L 1000 931.34 L 1189.23 884.5 z" stroke-linecap="round" />
</g>
</svg>